<?xml version="1.0" encoding="utf-8"?>
<!-- Generator: Adobe Illustrator 26.0.3, SVG Export Plug-In . SVG Version: 6.00 Build 0)  -->
<svg version="1.1" id="Layer_1" xmlns="http://www.w3.org/2000/svg" xmlns:xlink="http://www.w3.org/1999/xlink" x="0px" y="0px"
	 viewBox="0 0 802.5 153" style="enable-background:new 0 0 802.5 153;" xml:space="preserve">
<style type="text/css">
	.st0{fill:#3674B5;}
	.st1{fill-rule:evenodd;clip-rule:evenodd;fill:#3674B5;}
</style>
<path class="st0" d="M622.6,23.7c-3,6-5.9,12-8.8,17.9c-8.1,16.4-16.7,32.5-24.2,49.1c-0.8,1.8-1.6,3.6-2.3,5.5
	c-0.2,0.7-0.9,1.1-1.6,1c-0.6,0-1.2-0.4-1.4-1c-6.2-16.6-14.5-32.2-21.7-48.3c-3.5-7.9-7-15.7-10.5-23.6c-0.2-0.5-0.5-0.9-0.9-1.8
	c-0.2,3.5-0.5,6.6-0.6,9.7c-0.5,11.3-1.2,22.6-1.5,34c-0.1,5.6-0.2,11.1-0.2,16.7c0,1.8,0.2,3.6,0.6,5.4c0.3,2.2,2.2,3.8,4.4,3.8
	c1.8,0.2,3.5,0.4,5.3,0.5c1.5,0.1,1.7,1,1.6,2.2c-0.1,1.2-0.7,1.6-1.9,1.5c-7.7-0.5-15.4-0.4-23.1-0.2c-1.3,0-2.7,0.1-4,0.2
	c-1.5,0.2-1.5-0.9-1.7-1.8c-0.2-0.9,0.1-1.8,1.3-1.9c1.5-0.2,3-0.4,4.5-0.6c3-0.4,4.6-2.3,5.3-5.1c0.7-3.2,1.1-6.4,1.2-9.7
	c1.1-12.4,1.9-24.7,2.6-37.1c0.4-7.4,0.7-14.8,1-22.1c0-0.8,0-1.6-0.1-2.4c-0.4-4-1.7-5.6-5.7-6.6c-1.4-0.4-2.9-0.6-4.4-0.8
	c-1.4-0.1-1.7-0.9-1.6-2c0.1-1.1,0.6-1.8,2-1.7c5.6,0.4,11.2,0.5,16.9,0.3c1.1,0,2.2-0.2,3.4-0.2c0.5-0.1,0.9-0.1,0.9,0.7
	c0.1,6.2,2.4,11.8,5,17.2c6.1,12.9,12.4,25.7,18.7,38.5c2.5,5.2,5.1,10.3,7.7,15.5c0.2,0.5,0.5,0.9,0.9,1.5
	c2.1-3.5,3.9-6.9,5.6-10.4c8-16.2,15.9-32.5,23.8-48.8c2.1-4.3,4-8.7,4.3-13.5c0.1-1,0.7-0.7,1.3-0.7c5.9,0.4,11.8,0.4,17.7,0.1
	c0.7,0,1.4-0.1,2.1-0.2c1.2-0.2,2.1-0.1,2.2,1.5c0.1,1.6-0.4,2.2-2,2.2c-1.8,0-3.5,0.3-5.2,0.8c-3.4,0.9-5.1,2.8-5.5,6.3
	c-0.7,5.8,0,11.5-0.1,17.3c0,4,0.1,8,0.2,12c0.2,12.9,0.5,25.9,1.3,38.8c0.1,1.4,0.2,2.8,0.5,4.1c0.6,2.8,2.1,4.2,5,4.6
	c1.4,0.2,2.9,0.4,4.3,0.4c1.4,0,1.8,0.8,1.7,2s-0.5,1.8-1.9,1.7c-8.6-0.5-17.1-0.4-25.7-0.2c-1.7,0-3.4,0.1-5.1,0.2
	c-1.3,0.1-1.5-0.8-1.6-1.7s0-1.9,1.3-2c1.8-0.2,3.6-0.3,5.4-0.7c2.9-0.6,4-1.9,4.3-4.8c0.5-4.9,0.2-9.7,0.2-14.6
	c0-4.5-0.2-9-0.2-13.5c0-10.4-0.1-20.8-0.1-31.2c0-1.4-0.1-2.7-0.2-4.1L622.6,23.7z"/>
<path class="st0" d="M675,22.2c-0.6,2.1-0.9,4.2-0.7,6.4c0,14.7-0.2,29.4,0.2,44.2c0.1,4.4,0.5,8.8,1.2,13.1c0.8,4.5,2,5.7,6.5,6.2
	c1.5,0.2,3,0.4,4.5,0.4s1.8,0.8,1.8,2.1s-0.6,1.8-2,1.7c-8.1-0.5-16.2-0.4-24.3-0.2c-1.3,0-2.6,0.1-3.8,0.2
	c-1.5,0.2-1.7-0.8-1.8-1.8c-0.2-0.8,0.3-1.7,1.1-1.9c0.2,0,0.3-0.1,0.5,0c1.6-0.1,3.2-0.4,4.8-0.6c2.6-0.4,4.1-1.9,4.5-4.6
	c0.6-4.3,1-8.7,1-13.1c0.3-18,0.1-36.1,0.1-54.1c0.1-2.3-0.5-4.6-1.6-6.6c-2.2-3.7-5.9-4.5-9.7-5.2c-0.5-0.1-1-0.1-1.4-0.1
	c-1.5,0-1.8-1-1.7-2.2s0.9-1.6,2.1-1.5c6.6,0.5,13.2,0.5,19.7,0.1c0.5-0.1,0.9,0.1,1.1,0.6c4,7.6,9.5,13.9,15.1,20.3
	c13.2,15.4,26.5,30.7,40.3,45.6c0.9,1,1.8,1.9,2.8,2.9c0.2,0.2,0.4,0.7,0.9,0.5s0.3-0.6,0.4-1c0.1-1.1,0.2-2.1,0.2-3.2
	c0-11.1,0.1-22.3,0-33.4c-0.1-7.3-0.1-14.7-1.5-21.9c-0.8-4.3-1.6-5.2-6-6c-1.7-0.3-3.5-0.6-5.2-0.8c-1.4-0.1-1.4-1.1-1.4-2.1
	s0.5-1.6,1.7-1.6c4.2,0.2,8.5,0.3,12.7,0.4c5.1,0,10.2,0.1,15.2-0.3c1.2-0.1,2.2-0.1,2.3,1.5s-0.3,2.1-1.9,2.3
	c-2,0.2-3.9,0.7-5.8,1.3c-1.6,0.5-2.7,1.8-3,3.4c-0.8,4-1.2,8.1-1.3,12.3c-0.5,17-0.2,34-0.2,51.1c0,6.6-0.1,13.2,0.4,19.7
	c0.1,0.9-0.5,1.7-1.3,1.9c-0.6,0.4-1.4,0.2-1.8-0.4c-8-10.2-16.7-19.8-25.2-29.6c-12.7-14.6-25.4-29.1-37.9-43.9
	C676.1,23.4,675.6,22.9,675,22.2z"/>
<path class="st0" d="M441.1,38c0-6.6,0-13.3,0-19.9c0-1.2-0.1-2.5-0.3-3.7c-0.5-4-2.2-5.6-6.2-6.1C433.3,8.1,432,8,430.8,8
	c-1.3,0-1.7-0.6-1.6-1.8s0.3-1.8,1.7-1.8c3.4,0.2,6.8,0.3,10.3,0.3c7.1,0.1,14.1,0.1,21.2-0.3c1.9-0.1,2,0.4,2.2,1.9
	c0.1,1-0.4,1.6-1.5,1.6c-1.6,0-3.1,0.2-4.6,0.5c-3.5,0.7-5,2.2-5.4,5.8c-0.2,1.6-0.3,3.2-0.4,4.8c0,13.6-0.1,27.3,0.1,41
	c0,5.7,1.1,11.3,3.1,16.6c3.8,9.6,11,14.4,21.1,15.2c5,0.6,10.1-0.2,14.8-2.1c7.2-3.2,11.1-9.2,13.4-16.4c1.7-5.4,2.5-11,2.4-16.6
	c0-9.8,0.2-19.6-0.2-29.4c-0.1-4.2-0.5-8.4-1.2-12.6c-0.8-4.5-2.5-6-7-6.5c-1-0.2-2-0.2-3-0.3c-1.4,0.1-2-0.5-1.9-1.9
	s0.9-1.8,2.1-1.6c3.6,0.3,7.3,0.3,10.9,0.3c5.5,0.1,11,0.1,16.5-0.3c1.5-0.1,2.1,0.5,2,2c-0.1,1-0.4,1.5-1.5,1.6c-2,0-4.1,0.3-6,0.9
	c-1.8,0.5-3.1,2-3.5,3.8c-0.9,4.5-1.4,9-1.3,13.5c-0.1,11.2-0.1,22.5-0.3,33.7c-0.1,5.6-1,11.1-2.8,16.4
	c-3.4,10.2-10.2,16.9-20.5,19.9c-9.4,2.8-19.4,2.5-28.6-0.6c-10.5-3.4-16.2-11.2-18.5-21.7c-1-5.1-1.5-10.4-1.5-15.6
	c-0.1-6.8,0-13.6,0-20.4L441.1,38z"/>
<path class="st0" d="M306.6,60.5c-3.7,0-7.4,0-11.1,0c-2.9,0-3.6,0.5-4.5,3.3c-2.5,7.8-5.4,15.4-7.4,23.3c-0.1,0.3-0.1,0.6-0.2,0.9
	c-0.4,3,0.2,3.7,3.2,4.1c1.3,0.1,2.6,0.3,3.8,0.4s2.1,0.7,2,2.1s-0.9,1.7-2.2,1.6c-6.7-0.4-13.5-0.4-20.2-0.2
	c-1.7,0-3.4,0.1-5.1,0.2c-1.5,0.1-1.5-1-1.6-1.9s0.1-1.7,1.3-1.8s2.3-0.2,3.5-0.3c4.3-0.3,6.8-2.7,8.3-6.5c2.4-6,4.9-12,7.2-18
	c6.8-18,13.6-36,20.3-54.1c0.4-0.8,0.7-1.7,0.7-2.6c-0.2-2.5,1-3.7,3.2-4.7c1.3-0.7,2.4-1.6,3.3-2.8c1.3-1.4,2.5-1.2,3.1,0.7
	c1.3,3.9,2.5,7.9,3.8,11.7c7.4,21.8,14.8,43.7,22.2,65.5c0.7,1.8,1.4,3.6,2.2,5.3c1.3,3.2,4.3,5.3,7.7,5.4c1,0.1,1.9,0.3,2.9,0.3
	c1.5,0,1.8,0.9,1.7,2.1s-0.4,1.7-1.8,1.6c-8.3-0.5-16.6-0.4-24.9-0.2c-1.8,0-3.6,0.1-5.5,0.2c-1.3,0.1-1.6-0.6-1.7-1.6
	s0-1.9,1.4-2.1c1.8-0.1,3.6-0.3,5.4-0.7c2.5-0.7,2.9-1.4,2.3-3.8c-1.7-7-4.3-13.6-6.3-20.5c-0.5-1.6-1-3.2-1.5-4.7
	c-0.4-1.4-1.7-2.4-3.1-2.3L306.6,60.5L306.6,60.5z M307.4,19.5c-0.4,0.5-0.8,1.1-1,1.8c-4,10.2-7.6,20.6-11.3,30.9
	c-0.8,2.2-0.5,2.6,2,2.6h18.1c3.4,0,3.8-0.6,2.8-3.8c-2.2-6.6-4.4-13.3-6.6-19.9C310.2,27.3,309.1,23.4,307.4,19.5L307.4,19.5z"/>
<path class="st0" d="M380.6,48.6c0,10,0,19.9,0,29.9c0,2.1,0.2,4.2,0.8,6.2c0.7,2.9,3,5.2,6,5.9c1.8,0.5,3.7,0.7,5.5,0.8
	c6.2,0.4,12.4,0.3,18.6-0.5c2.3-0.3,4.3-1.4,5.8-3.2c2.6-3.1,4.7-6.6,6.1-10.5c0.5-1.5,1.4-1.6,2.8-1.3s1.3,1.3,1.1,2.4
	c-1.3,5.7-3,11.4-5,16.9c-0.2,0.8-1,1.3-1.8,1.1c-18-0.6-35.9-0.3-53.9-0.3c-2.8,0-5.6,0.1-8.3,0.3c-1.3,0.1-1.7-0.5-1.8-1.6
	s0.1-1.9,1.6-2c2-0.1,4-0.4,6-0.8c2.4-0.4,4.3-2.3,4.6-4.7c0.5-3.2,0.7-6.5,0.6-9.8c0-18,0-36,0-54c0.1-3.2-0.1-6.3-0.6-9.4
	c-0.6-3.3-2.1-4.9-5.5-5.4c-1.4-0.2-2.9-0.3-4.3-0.4c-1.2-0.1-2.7,0.1-2.5-2c0.2-1.6,0.5-1.9,2.7-1.7c4.3,0.2,8.6,0.3,12.9,0.3
	c6,0.1,12.1,0,18.1-0.3c0.9-0.1,2.1-0.5,2.4,1.1c0.4,1.7,0,2.4-1.7,2.6c-1.2,0.1-2.5,0.2-3.7,0.4c-4.4,0.7-5.9,2.3-6.3,6.7
	c-0.2,2.3-0.3,4.7-0.3,7.1c0,8.8,0,17.6,0,26.3L380.6,48.6z"/>
<path class="st0" d="M795.8,96.3c-10.1-0.5-20.2-0.5-30.4,0c-1.3,0.1-1.9-0.4-2-1.6s0.2-2,1.7-2.1c1.4-0.1,2.9-0.3,4.3-0.6
	c4.1-0.8,5.5-2.3,5.9-6.4c0.2-1.9,0.3-3.8,0.3-5.8c0-19.6,0-39.2,0-58.8c0-2.5-0.2-4.9-0.6-7.3c-0.6-3.1-2.2-4.6-5.2-5
	c-1.7-0.3-3.3-0.5-5-0.5c-1.5,0-1.5-0.9-1.4-1.9s0.4-1.8,1.7-1.7c4.4,0.3,8.9,0.3,13.3,0.4c6,0,12,0,18-0.3c1-0.1,2.3-0.5,2.6,1.2
	c0.3,1.7,0,2.2-1.7,2.4c-1.5,0.2-3,0.3-4.5,0.5c-3.2,0.5-4.8,2-5.4,5.2c-0.8,4.1-0.6,8.3-0.6,12.5c0,16,0,32,0,48
	c-0.2,4.1,0,8.2,0.6,12.3c0.2,2.7,2.3,4.8,5,5.1c1.7,0.3,3.5,0.6,5.2,0.7c1.4,0.1,1.6,1,1.5,2.1s-0.5,1.8-1.8,1.6
	C796.8,96.3,796.3,96.3,795.8,96.3z"/>
<path id="Object_161" class="st0" d="M247,144.6V-0.3h-6.6v144.9L247,144.6L247,144.6z"/>
<path id="Object_124" class="st1" d="M115.6,75.9c0,25.6-20.7,46.4-46.3,46.4S22.9,101.6,22.9,76l0,0V4.6h5.8v70.7
	c0,22.4,18.2,40.5,40.6,40.5s40.5-18.2,40.5-40.5V4.4h5.8V75.9z M138.6,75.9c0,38.3-31,69.3-69.3,69.3S0,114.2,0,75.9V4.5h5.8v70.7
	c0,35.1,28.4,63.5,63.5,63.5s63.5-28.4,63.5-63.5l0,0V4.3h5.8V75.9z M127.1,75.9c0,31.9-25.8,57.8-57.7,57.8S11.6,107.9,11.6,76l0,0
	V4.6h5.8v70.7c1.1,28.7,25.3,51,54,49.9c27.1-1.1,48.9-22.8,49.9-49.9V4.4h5.8L127.1,75.9L127.1,75.9z M104.2,75.9
	c-0.4,19.2-16.4,34.5-35.6,34C50,109.5,35.1,94.5,34.6,76V4.6h5.8v70.8c0,16,13,29,29,29s29-13,29-29V4.5h5.8V75.9z"/>
<path id="Object_125" class="st0" d="M132.8,4.4h5.8L222.4,140h-7.2L132.8,4.4z"/>
<path id="Object_126" class="st0" d="M121.2,4.4h5.9L210.8,140h-7.2L121.2,4.4z"/>
<path id="Object_127" class="st0" d="M109.8,4.4h5.8L199.4,140h-7.2L109.8,4.4z"/>
<path id="Object_128" class="st0" d="M98.3,4.4h5.8L187.9,140h-7.2L98.3,4.4z"/>
<path id="Object_129" class="st0" d="M217,120V33.1l5.8,2.3v94L217,120z"/>
<path id="Object_130" class="st0" d="M181.6,62.8V19.1l5.8,2.3v50.8L181.6,62.8z"/>
<path id="Object_131" class="st0" d="M193.4,81.8v-58l5.8,2.3v65.1L193.4,81.8z"/>
<path id="Object_132" class="st0" d="M205.2,100.9V28.4l5.8,2.3v79.6L205.2,100.9z"/>
<path id="Object_133" class="st0" d="M217,26.8V4.4h5.8v24.7L217,26.8z"/>
<path id="Object_134" class="st0" d="M181.6,12.6V4.3h5.8V15L181.6,12.6z"/>
<path id="Object_135" class="st0" d="M193.4,17.3v-13h5.8v15.3L193.4,17.3z"/>
<path id="Object_136" class="st0" d="M205.2,22.1V4.4h5.8v20L205.2,22.1z"/>
<path id="Object_137" class="st0" d="M98.3,4.4v1.4l5.8,10v-2L98.3,4.4z"/>
<path id="Object_138" class="st0" d="M109.8,4.4v1.4l5.8,10v-2L109.8,4.4z"/>
<path id="Object_139" class="st0" d="M121.2,4.4v1.4l5.8,10v-2L121.2,4.4z"/>
<path id="Object_140" class="st0" d="M132.8,4.4v1.4l5.8,10v-2L132.8,4.4z"/>
<path id="Object_141" class="st0" d="M109.8,23.3v1.4l5.8,10.1v-2L109.8,23.3z"/>
<path id="Object_142" class="st0" d="M121.2,23.2v1.4l5.8,10.1v-2L121.2,23.2z"/>
<path id="Object_143" class="st0" d="M132.8,23.4v1.4l5.8,10v-2L132.8,23.4z"/>
<path id="Object_144" class="st0" d="M121.3,42.2v1.4l5.8,10.1v-2L121.3,42.2z"/>
<path id="Object_145" class="st0" d="M132.8,42.2v1.4l5.8,10v-1.9L132.8,42.2z"/>
<path id="Object_146" class="st0" d="M132.8,61.1v1.4l5.8,10v-1.9L132.8,61.1z"/>
<g>
	<path class="st0" d="M299.6,112.4c-3.3,0.3-4.4,0.8-4.5,2.9c-0.1,1.5-0.2,3.4-0.2,7.7v18.5H293l-21.9-24.1v11.5
		c0,4.1,0.2,6.2,0.3,7.6c0.1,2.3,1.4,3,5.1,3.3v1.3H264v-1.3c3.2-0.2,4.4-0.9,4.6-3.2c0.2-1.5,0.3-3.5,0.3-7.7v-11.7
		c0-1.3-0.1-2-1-3c-1-1.2-2.1-1.4-4.6-1.7v-1.3h7.7l21.7,23.2V123c0-4.3-0.1-6.3-0.3-7.6c-0.2-2.1-1.3-2.7-5.4-2.9v-1.3h12.7v1.2
		H299.6z"/>
	<path class="st0" d="M323.2,120.3c6.4,0,11.2,4.4,11.2,10.3c0,7.5-6.2,11-11.2,11c-7.1,0-11.4-5.1-11.4-10.3
		C311.8,123.9,318.3,120.3,323.2,120.3z M322.6,121.9c-3.1,0-5.9,2.7-5.9,8.1c0,5.9,2.9,10.1,7.1,10.1c3.2,0,5.8-2.1,5.8-8.4
		C329.6,126.3,327.1,121.9,322.6,121.9z"/>
	<path class="st0" d="M359.8,141.1H348v-1.3c3.2-0.3,3.5-0.5,3.5-3.5v-9.6c0-3-0.2-3.2-3.2-3.5V122c2.5-0.4,4.8-0.9,7.2-1.9
		c0,1.5,0,3.5,0,5.1c1.8-2.4,3.9-4.9,6.5-4.9c1.9,0,3,1.1,3,2.2s-0.8,2.1-1.7,2.5c-0.5,0.3-0.9,0.2-1.3-0.1
		c-0.8-0.7-1.4-1.2-2.3-1.2c-1.1,0-3,1.4-4.1,3.8v8.7c0,3,0.3,3.3,4.2,3.5L359.8,141.1L359.8,141.1z"/>
	<path class="st0" d="M401.8,139.9c-1.1,0.2-4.9,0.7-7.9,1.7c0-1,0-2,0-3c-0.9,0.5-2.3,1.2-3.2,1.7c-2.1,1.1-3.4,1.3-4.1,1.3
		c-4.1,0-9.5-3.7-9.5-10.1s6.3-11.2,13.3-11.2c0.7,0,2.4,0.1,3.5,0.5V114c0-2.9-0.4-3-4-3.3v-1.2c2.6-0.3,6.2-1,8.1-1.6
		c0,1.7,0,3.7,0,5.6v22.2c0,2.4,0.4,2.7,2.3,2.8l1.6,0.1L401.8,139.9L401.8,139.9z M393.9,124.5c-1.2-1.6-3.4-2.3-5.4-2.3
		c-2.5,0-6.8,1.5-6.8,8.1c0,5.6,3.8,8.5,7.1,8.6c1.8,0,3.8-0.8,5.1-1.7L393.9,124.5L393.9,124.5z"/>
	<path class="st0" d="M414.5,141.1v-1.3c3.2-0.3,3.6-0.5,3.6-3.6v-9.5c0-2.9-0.2-3-3.2-3.5v-1.1c2.7-0.4,5.1-1,7.3-1.8
		c0,1.9,0,3.9,0,5.8v10.1c0,3.1,0.4,3.4,3.7,3.6v1.3H414.5z M419.8,115.7c-1.4,0-2.7-1.2-2.7-2.4c0-1.5,1.3-2.5,2.8-2.5
		c1.4,0,2.6,1.1,2.6,2.5C422.5,114.6,421.3,115.7,419.8,115.7z"/>
	<path class="st0" d="M457.9,136.9c-2.3,2.7-5.7,4.7-8.8,4.7c-6.5,0-10.4-4.7-10.4-9.7c0-3.6,1.7-6.7,5.2-9c2.7-1.9,5.8-2.6,7.8-2.6
		c2.3,0,4,0.6,4.8,1.2c0.7,0.5,0.8,0.8,0.8,1.3c0,1.1-1.3,2.1-1.8,2.1c-0.3,0-0.5-0.1-1-0.5c-1.6-1.3-3.3-1.9-5.2-1.9
		c-3.4,0-6.4,2.6-6.4,7.4c-0.1,6.4,4.8,8.5,7.8,8.5c2.2,0,3.9-0.5,6.3-2.5L457.9,136.9z"/>
	<path class="st0" d="M528.6,112.4c-3.2,0.2-4.4,0.9-4.5,3c-0.1,1.1-0.2,3-0.2,7.2v5c0,4.7-0.6,8.3-3.6,11.1
		c-2.4,2.3-5.9,2.9-9.4,2.9c-3,0-6.2-0.6-8.4-2.1c-3.1-2.1-4.6-5.3-4.6-10.7v-11.7c0-4.1-0.4-4.4-4.5-4.7v-1.3h13.5v1.3
		c-4.1,0.2-4.5,0.6-4.5,4.7v11.5c0,6.7,3.5,10.4,9.7,10.4c7.3,0,9.6-4.1,9.6-11.7v-4.7c0-4.2-0.2-6-0.3-7.2c-0.2-2.1-1.3-2.9-5.1-3
		v-1.3h12.3V112.4z"/>
	<path class="st0" d="M553.6,141.1v-1.3c3-0.3,3.3-0.6,3.3-3.7v-7.6c0-3.2-1.3-5.4-4.7-5.4c-2.1,0-4.1,1.1-5.7,2.4v10.8
		c0,3.2,0.3,3.3,3.3,3.5v1.3h-11.1v-1.3c3.4-0.3,3.7-0.5,3.7-3.5v-9.5c0-3-0.4-3.1-3.1-3.5V122c2.5-0.4,5-1,7.2-1.8
		c0,1.1,0,2.5,0,3.6c1-0.6,2.2-1.3,3.5-2.1c1.4-0.8,2.8-1.4,4.3-1.4c4.1,0,6.7,2.7,6.7,7.2v8.8c0,3.1,0.3,3.3,3.3,3.5v1.3H553.6z"/>
	<path class="st0" d="M577.4,141.1v-1.3c3.2-0.3,3.6-0.5,3.6-3.6v-9.5c0-2.9-0.2-3-3.2-3.5v-1.1c2.7-0.4,5.1-1,7.3-1.8
		c0,1.9,0,3.9,0,5.8v10.1c0,3.1,0.4,3.4,3.7,3.6v1.3H577.4z M582.8,115.7c-1.4,0-2.7-1.2-2.7-2.4c0-1.5,1.3-2.5,2.8-2.5
		c1.4,0,2.6,1.1,2.6,2.5C585.4,114.6,584.3,115.7,582.8,115.7z"/>
	<path class="st0" d="M624,122.1c-2.8,0.3-3.1,0.7-4.5,3.5c-1.7,3.7-4.6,9.8-7.3,16h-1.5c-2.2-5.3-4.7-10.8-7.1-16.2
		c-1.2-2.7-1.6-2.9-4.3-3.3v-1.2h10.5v1.2c-2.8,0.3-2.9,0.6-2.1,2.6c1.3,3.2,3.4,8.1,4.9,11.3c1.8-4.1,3.5-7.9,4.7-10.8
		c0.9-2.3,0.7-2.8-2.7-3.1v-1.2h9.3L624,122.1L624,122.1z"/>
	<path class="st0" d="M653.9,137.2c-3.3,3.7-6.9,4.5-8.5,4.5c-6.3,0-10.1-4.6-10.1-9.9c0-3.1,1.2-6,3.3-8.1c2.2-2.2,5-3.4,7.6-3.4
		c4.5,0,7.8,3.5,7.8,7.1c-0.1,0.9-0.2,1.3-1,1.5c-1,0.2-7.6,0.6-13.7,0.8c-0.2,6.2,4.1,8.7,7.7,8.7c2.1,0,4.1-0.8,5.9-2.3
		L653.9,137.2z M645.1,122.1c-2.4,0-4.7,2-5.4,5.7c2.9,0,5.7,0,8.8-0.1c0.9,0,1.2-0.2,1.2-0.9C649.8,124.3,648,122.1,645.1,122.1z"
		/>
	<path class="st0" d="M679.3,141.1h-11.8v-1.3c3.2-0.3,3.5-0.5,3.5-3.5v-9.6c0-3-0.2-3.2-3.2-3.5V122c2.5-0.4,4.8-0.9,7.2-1.9
		c0,1.5,0,3.5,0,5.1c1.8-2.4,3.9-4.9,6.5-4.9c1.9,0,3,1.1,3,2.2s-0.8,2.1-1.7,2.5c-0.5,0.3-0.9,0.2-1.3-0.1
		c-0.8-0.7-1.4-1.2-2.3-1.2c-1.1,0-3,1.4-4.1,3.8v8.7c0,3,0.3,3.3,4.2,3.5V141.1L679.3,141.1z"/>
	<path class="st0" d="M709.9,126.3c-0.9-2.7-2.3-4.5-5.4-4.5c-1.8,0-3.2,1.2-3.2,3c0,2,1.5,2.9,4.4,4.1c4.4,1.9,6.6,3.3,6.6,6.3
		c0,4.2-4.3,6.4-8.4,6.4c-2.7,0-5-0.7-6.1-1.3c-0.3-1.3-0.7-3.9-0.9-5.4l1.5-0.2c0.9,2.9,2.7,5.3,6.3,5.3c1.9,0,3.6-1.2,3.6-3.1
		c0-2.1-1.4-3.1-4.1-4.3c-3.6-1.6-6.5-3-6.5-6.4s3.2-5.9,8-5.9c2.2,0,3.9,0.5,4.9,0.6c0.2,1.1,0.5,4,0.8,5.1L709.9,126.3z"/>
	<path class="st0" d="M725.9,141.1v-1.3c3.2-0.3,3.6-0.5,3.6-3.6v-9.5c0-2.9-0.2-3-3.2-3.5v-1.1c2.7-0.4,5.1-1,7.3-1.8
		c0,1.9,0,3.9,0,5.8v10.1c0,3.1,0.4,3.4,3.7,3.6v1.3H725.9z M731.2,115.7c-1.4,0-2.7-1.2-2.7-2.4c0-1.5,1.3-2.5,2.8-2.5
		c1.4,0,2.6,1.1,2.6,2.5C733.9,114.6,732.7,115.7,731.2,115.7z"/>
	<path class="st0" d="M759.8,141c-0.9,0.4-1.7,0.6-2.2,0.6c-3.3,0-5-1.8-5-5.5v-13.4h-3.5l-0.2-0.6l1.4-1.3h2.4V117
		c1-0.9,2.5-2.1,3.4-3l0.8,0.1c-0.1,1.9-0.2,4.6-0.2,6.8h5.8c0.5,0.5,0.3,1.5-0.3,1.9h-5.5v11.8c0,3.7,1.6,4.4,3,4.4
		c1.2,0,2.4-0.4,3.1-0.7l0.5,1.2L759.8,141z"/>
	<path class="st0" d="M799.2,122.1c-2.7,0.4-3.2,0.7-4.5,3.4c-1.3,2.6-2.7,5.7-6.2,13.7c-3.3,7.4-4.3,10.2-5.1,12.6
		c-0.3,1-0.9,1.2-1.5,1.2c-1.6,0-3.1-1.1-3.1-2.2c0-0.6,0.4-1,1.1-1.6c1.6-1.2,2.8-2.3,3.4-3.4c1.1-1.9,1.8-3.5,2.1-4.1
		c0.2-0.7,0.2-1.1-0.1-1.9c-2-5.3-4.8-10.9-6.3-14.2c-1.1-2.5-1.6-3.1-4.4-3.4V121H785v1.2c-2.4,0.3-2.6,0.8-1.9,2.5l5,11.3
		c1.4-3.2,3.5-8.3,4.6-11.2c0.6-1.8,0.3-2.3-2.7-2.6V121h9.4v1.1H799.2z"/>
</g>
</svg>
