<svg id="Layer_1" data-name="Layer 1" xmlns="http://www.w3.org/2000/svg" viewBox="0 0 802.5 153"><defs><style>.cls-1,.cls-2{fill:#fff;}.cls-2{fill-rule:evenodd;}</style></defs><path class="cls-1" d="M622.6,23.7c-3,6-5.9,12-8.8,17.9-8.1,16.4-16.7,32.5-24.2,49.1-.8,1.8-1.6,3.6-2.3,5.5a1.43,1.43,0,0,1-1.6,1,1.5,1.5,0,0,1-1.4-1c-6.2-16.6-14.5-32.2-21.7-48.3-3.5-7.9-7-15.7-10.5-23.6-.2-.5-.5-.9-.9-1.8-.2,3.5-.5,6.6-.6,9.7-.5,11.3-1.2,22.6-1.5,34-.1,5.6-.2,11.1-.2,16.7a24.83,24.83,0,0,0,.6,5.4,4.42,4.42,0,0,0,4.4,3.8c1.8.2,3.5.4,5.3.5,1.5.1,1.7,1,1.6,2.2s-.7,1.6-1.9,1.5c-7.7-.5-15.4-.4-23.1-.2-1.3,0-2.7.1-4,.2-1.5.2-1.5-.9-1.7-1.8a1.4,1.4,0,0,1,1.3-1.9l4.5-.6c3-.4,4.6-2.3,5.3-5.1a52.51,52.51,0,0,0,1.2-9.7c1.1-12.4,1.9-24.7,2.6-37.1.4-7.4.7-14.8,1-22.1a19.27,19.27,0,0,0-.1-2.4c-.4-4-1.7-5.6-5.7-6.6a31.09,31.09,0,0,0-4.4-.8c-1.4-.1-1.7-.9-1.6-2a1.63,1.63,0,0,1,2-1.7,158.39,158.39,0,0,0,16.9.3c1.1,0,2.2-.2,3.4-.2.5-.1.9-.1.9.7.1,6.2,2.4,11.8,5,17.2,6.1,12.9,12.4,25.7,18.7,38.5,2.5,5.2,5.1,10.3,7.7,15.5a8.46,8.46,0,0,0,.9,1.5c2.1-3.5,3.9-6.9,5.6-10.4q12-24.3,23.8-48.8c2.1-4.3,4-8.7,4.3-13.5.1-1,.7-.7,1.3-.7a149.32,149.32,0,0,0,17.7.1,14.92,14.92,0,0,0,2.1-.2c1.2-.2,2.1-.1,2.2,1.5s-.4,2.2-2,2.2a18.21,18.21,0,0,0-5.2.8c-3.4.9-5.1,2.8-5.5,6.3-.7,5.8,0,11.5-.1,17.3,0,4,.1,8,.2,12,.2,12.9.5,25.9,1.3,38.8a27,27,0,0,0,.5,4.1c.6,2.8,2.1,4.2,5,4.6a31.25,31.25,0,0,0,4.3.4c1.4,0,1.8.8,1.7,2s-.5,1.8-1.9,1.7c-8.6-.5-17.1-.4-25.7-.2-1.7,0-3.4.1-5.1.2-1.3.1-1.5-.8-1.6-1.7s0-1.9,1.3-2a49.87,49.87,0,0,0,5.4-.7c2.9-.6,4-1.9,4.3-4.8.5-4.9.2-9.7.2-14.6,0-4.5-.2-9-.2-13.5,0-10.4-.1-20.8-.1-31.2,0-1.4-.1-2.7-.2-4.1Z"/><path class="cls-1" d="M675,22.2a17.29,17.29,0,0,0-.7,6.4c0,14.7-.2,29.4.2,44.2a95.2,95.2,0,0,0,1.2,13.1c.8,4.5,2,5.7,6.5,6.2a34.19,34.19,0,0,0,4.5.4c1.5,0,1.8.8,1.8,2.1s-.6,1.8-2,1.7c-8.1-.5-16.2-.4-24.3-.2-1.3,0-2.6.1-3.8.2-1.5.2-1.7-.8-1.8-1.8a1.6,1.6,0,0,1,1.1-1.9c.2,0,.3-.1.5,0,1.6-.1,3.2-.4,4.8-.6a4.94,4.94,0,0,0,4.5-4.6,95.08,95.08,0,0,0,1-13.1c.3-18,.1-36.1.1-54.1a12.66,12.66,0,0,0-1.6-6.6c-2.2-3.7-5.9-4.5-9.7-5.2a7.08,7.08,0,0,0-1.4-.1c-1.5,0-1.8-1-1.7-2.2s.9-1.6,2.1-1.5a144,144,0,0,0,19.7.1.91.91,0,0,1,1.1.6c4,7.6,9.5,13.9,15.1,20.3,13.2,15.4,26.5,30.7,40.3,45.6.9,1,1.8,1.9,2.8,2.9.2.2.4.7.9.5s.3-.6.4-1c.1-1.1.2-2.1.2-3.2,0-11.1.1-22.3,0-33.4-.1-7.3-.1-14.7-1.5-21.9-.8-4.3-1.6-5.2-6-6-1.7-.3-3.5-.6-5.2-.8-1.4-.1-1.4-1.1-1.4-2.1s.5-1.6,1.7-1.6c4.2.2,8.5.3,12.7.4,5.1,0,10.2.1,15.2-.3,1.2-.1,2.2-.1,2.3,1.5s-.3,2.1-1.9,2.3a28.65,28.65,0,0,0-5.8,1.3,4.34,4.34,0,0,0-3,3.4,71.24,71.24,0,0,0-1.3,12.3c-.5,17-.2,34-.2,51.1,0,6.6-.1,13.2.4,19.7a1.77,1.77,0,0,1-1.3,1.9,1.3,1.3,0,0,1-1.8-.4c-8-10.2-16.7-19.8-25.2-29.6-12.7-14.6-25.4-29.1-37.9-43.9A11.6,11.6,0,0,0,675,22.2Z"/><path class="cls-1" d="M441.1,38V18.1a23.08,23.08,0,0,0-.3-3.7c-.5-4-2.2-5.6-6.2-6.1a25.31,25.31,0,0,0-3.8-.3c-1.3,0-1.7-.6-1.6-1.8s.3-1.8,1.7-1.8c3.4.2,6.8.3,10.3.3,7.1.1,14.1.1,21.2-.3,1.9-.1,2,.4,2.2,1.9.1,1-.4,1.6-1.5,1.6a23.15,23.15,0,0,0-4.6.5c-3.5.7-5,2.2-5.4,5.8-.2,1.6-.3,3.2-.4,4.8,0,13.6-.1,27.3.1,41a47,47,0,0,0,3.1,16.6c3.8,9.6,11,14.4,21.1,15.2a30.06,30.06,0,0,0,14.8-2.1c7.2-3.2,11.1-9.2,13.4-16.4a52.14,52.14,0,0,0,2.4-16.6c0-9.8.2-19.6-.2-29.4a89.51,89.51,0,0,0-1.2-12.6c-.8-4.5-2.5-6-7-6.5-1-.2-2-.2-3-.3-1.4.1-2-.5-1.9-1.9s.9-1.8,2.1-1.6c3.6.3,7.3.3,10.9.3,5.5.1,11,.1,16.5-.3,1.5-.1,2.1.5,2,2-.1,1-.4,1.5-1.5,1.6a20.29,20.29,0,0,0-6,.9,5,5,0,0,0-3.5,3.8,61.78,61.78,0,0,0-1.3,13.5c-.1,11.2-.1,22.5-.3,33.7a53.77,53.77,0,0,1-2.8,16.4c-3.4,10.2-10.2,16.9-20.5,19.9a47.32,47.32,0,0,1-28.6-.6c-10.5-3.4-16.2-11.2-18.5-21.7a81.65,81.65,0,0,1-1.5-15.6c-.1-6.8,0-13.6,0-20.4Z"/><path class="cls-1" d="M306.6,60.5H295.5c-2.9,0-3.6.5-4.5,3.3-2.5,7.8-5.4,15.4-7.4,23.3-.1.3-.1.6-.2.9-.4,3,.2,3.7,3.2,4.1,1.3.1,2.6.3,3.8.4s2.1.7,2,2.1-.9,1.7-2.2,1.6c-6.7-.4-13.5-.4-20.2-.2-1.7,0-3.4.1-5.1.2-1.5.1-1.5-1-1.6-1.9s.1-1.7,1.3-1.8l3.5-.3c4.3-.3,6.8-2.7,8.3-6.5,2.4-6,4.9-12,7.2-18q10.2-27,20.3-54.1a5.94,5.94,0,0,0,.7-2.6c-.2-2.5,1-3.7,3.2-4.7a9.87,9.87,0,0,0,3.3-2.8c1.3-1.4,2.5-1.2,3.1.7,1.3,3.9,2.5,7.9,3.8,11.7,7.4,21.8,14.8,43.7,22.2,65.5.7,1.8,1.4,3.6,2.2,5.3a8.58,8.58,0,0,0,7.7,5.4,28.5,28.5,0,0,0,2.9.3c1.5,0,1.8.9,1.7,2.1s-.4,1.7-1.8,1.6c-8.3-.5-16.6-.4-24.9-.2-1.8,0-3.6.1-5.5.2-1.3.1-1.6-.6-1.7-1.6s0-1.9,1.4-2.1a33.27,33.27,0,0,0,5.4-.7c2.5-.7,2.9-1.4,2.3-3.8-1.7-7-4.3-13.6-6.3-20.5-.5-1.6-1-3.2-1.5-4.7a3.1,3.1,0,0,0-3.1-2.3l-12.4.1Zm.8-41a5.24,5.24,0,0,0-1,1.8c-4,10.2-7.6,20.6-11.3,30.9-.8,2.2-.5,2.6,2,2.6h18.1c3.4,0,3.8-.6,2.8-3.8-2.2-6.6-4.4-13.3-6.6-19.9a114.09,114.09,0,0,0-4-11.6Z"/><path class="cls-1" d="M380.6,48.6V78.5a21.54,21.54,0,0,0,.8,6.2,8,8,0,0,0,6,5.9,26.09,26.09,0,0,0,5.5.8,96.43,96.43,0,0,0,18.6-.5,8.92,8.92,0,0,0,5.8-3.2,34.42,34.42,0,0,0,6.1-10.5c.5-1.5,1.4-1.6,2.8-1.3s1.3,1.3,1.1,2.4a142.36,142.36,0,0,1-5,16.9,1.49,1.49,0,0,1-1.8,1.1c-18-.6-35.9-.3-53.9-.3-2.8,0-5.6.1-8.3.3-1.3.1-1.7-.5-1.8-1.6s.1-1.9,1.6-2a41.13,41.13,0,0,0,6-.8,5.52,5.52,0,0,0,4.6-4.7,53.23,53.23,0,0,0,.6-9.8v-54a49,49,0,0,0-.6-9.4c-.6-3.3-2.1-4.9-5.5-5.4-1.4-.2-2.9-.3-4.3-.4-1.2-.1-2.7.1-2.5-2,.2-1.6.5-1.9,2.7-1.7q6.45.3,12.9.3c6,.1,12.1,0,18.1-.3.9-.1,2.1-.5,2.4,1.1s0,2.4-1.7,2.6c-1.2.1-2.5.2-3.7.4-4.4.7-5.9,2.3-6.3,6.7-.2,2.3-.3,4.7-.3,7.1V48.7Z"/><path class="cls-1" d="M795.8,96.3c-10.1-.5-20.2-.5-30.4,0-1.3.1-1.9-.4-2-1.6s.2-2,1.7-2.1a31.76,31.76,0,0,0,4.3-.6c4.1-.8,5.5-2.3,5.9-6.4a54.9,54.9,0,0,0,.3-5.8V21a44,44,0,0,0-.6-7.3c-.6-3.1-2.2-4.6-5.2-5a28.25,28.25,0,0,0-5-.5c-1.5,0-1.5-.9-1.4-1.9s.4-1.8,1.7-1.7c4.4.3,8.9.3,13.3.4,6,0,12,0,18-.3,1-.1,2.3-.5,2.6,1.2s0,2.2-1.7,2.4c-1.5.2-3,.3-4.5.5-3.2.5-4.8,2-5.4,5.2-.8,4.1-.6,8.3-.6,12.5v48a63.41,63.41,0,0,0,.6,12.3,5.56,5.56,0,0,0,5,5.1,46.33,46.33,0,0,0,5.2.7c1.4.1,1.6,1,1.5,2.1s-.5,1.8-1.8,1.6Z"/><path id="Object_161" data-name="Object 161" class="cls-1" d="M247,144.6V-.3h-6.6V144.6Z"/><path id="Object_124" data-name="Object 124" class="cls-2" d="M115.6,75.9a46.35,46.35,0,0,1-92.7.1h0V4.6h5.8V75.3a40.55,40.55,0,0,0,81.1,0V4.4h5.8Zm23,0A69.3,69.3,0,0,1,0,75.9V4.5H5.8V75.2a63.5,63.5,0,0,0,127,0h0V4.3h5.8Zm-11.5,0A57.75,57.75,0,0,1,11.6,76h0V4.6h5.8V75.3a52,52,0,0,0,103.9,0V4.4h5.8V75.9Zm-22.9,0a34.81,34.81,0,0,1-69.6.1V4.6h5.8V75.4a29,29,0,0,0,58,0V4.5h5.8Z"/><path id="Object_125" data-name="Object 125" class="cls-1" d="M132.8,4.4h5.8L222.4,140h-7.2Z"/><path id="Object_126" data-name="Object 126" class="cls-1" d="M121.2,4.4h5.9L210.8,140h-7.2Z"/><path id="Object_127" data-name="Object 127" class="cls-1" d="M109.8,4.4h5.8L199.4,140h-7.2Z"/><path id="Object_128" data-name="Object 128" class="cls-1" d="M98.3,4.4h5.8L187.9,140h-7.2Z"/><path id="Object_129" data-name="Object 129" class="cls-1" d="M217,120V33.1l5.8,2.3v94Z"/><path id="Object_130" data-name="Object 130" class="cls-1" d="M181.6,62.8V19.1l5.8,2.3V72.2Z"/><path id="Object_131" data-name="Object 131" class="cls-1" d="M193.4,81.8v-58l5.8,2.3V91.2Z"/><path id="Object_132" data-name="Object 132" class="cls-1" d="M205.2,100.9V28.4l5.8,2.3v79.6Z"/><path id="Object_133" data-name="Object 133" class="cls-1" d="M217,26.8V4.4h5.8V29.1Z"/><path id="Object_134" data-name="Object 134" class="cls-1" d="M181.6,12.6V4.3h5.8V15Z"/><path id="Object_135" data-name="Object 135" class="cls-1" d="M193.4,17.3V4.3h5.8V19.6Z"/><path id="Object_136" data-name="Object 136" class="cls-1" d="M205.2,22.1V4.4H211v20Z"/><path id="Object_137" data-name="Object 137" class="cls-1" d="M98.3,4.4V5.8l5.8,10v-2Z"/><path id="Object_138" data-name="Object 138" class="cls-1" d="M109.8,4.4V5.8l5.8,10v-2Z"/><path id="Object_139" data-name="Object 139" class="cls-1" d="M121.2,4.4V5.8l5.8,10v-2Z"/><path id="Object_140" data-name="Object 140" class="cls-1" d="M132.8,4.4V5.8l5.8,10v-2Z"/><path id="Object_141" data-name="Object 141" class="cls-1" d="M109.8,23.3v1.4l5.8,10.1v-2Z"/><path id="Object_142" data-name="Object 142" class="cls-1" d="M121.2,23.2v1.4L127,34.7v-2Z"/><path id="Object_143" data-name="Object 143" class="cls-1" d="M132.8,23.4v1.4l5.8,10v-2Z"/><path id="Object_144" data-name="Object 144" class="cls-1" d="M121.3,42.2v1.4l5.8,10.1v-2Z"/><path id="Object_145" data-name="Object 145" class="cls-1" d="M132.8,42.2v1.4l5.8,10V51.7Z"/><path id="Object_146" data-name="Object 146" class="cls-1" d="M132.8,61.1v1.4l5.8,10V70.6Z"/><path class="cls-1" d="M299.6,112.4c-3.3.3-4.4.8-4.5,2.9-.1,1.5-.2,3.4-.2,7.7v18.5H293l-21.9-24.1v11.5c0,4.1.2,6.2.3,7.6.1,2.3,1.4,3,5.1,3.3v1.3H264v-1.3c3.2-.2,4.4-.9,4.6-3.2a60.52,60.52,0,0,0,.3-7.7V117.2a3.69,3.69,0,0,0-1-3c-1-1.2-2.1-1.4-4.6-1.7v-1.3H271l21.7,23.2V123a55.41,55.41,0,0,0-.3-7.6c-.2-2.1-1.3-2.7-5.4-2.9v-1.3h12.7v1.2Z"/><path class="cls-1" d="M323.2,120.3c6.4,0,11.2,4.4,11.2,10.3,0,7.5-6.2,11-11.2,11-7.1,0-11.4-5.1-11.4-10.3C311.8,123.9,318.3,120.3,323.2,120.3Zm-.6,1.6c-3.1,0-5.9,2.7-5.9,8.1,0,5.9,2.9,10.1,7.1,10.1,3.2,0,5.8-2.1,5.8-8.4C329.6,126.3,327.1,121.9,322.6,121.9Z"/><path class="cls-1" d="M359.8,141.1H348v-1.3c3.2-.3,3.5-.5,3.5-3.5v-9.6c0-3-.2-3.2-3.2-3.5V122a30.63,30.63,0,0,0,7.2-1.9v5.1c1.8-2.4,3.9-4.9,6.5-4.9,1.9,0,3,1.1,3,2.2a2.89,2.89,0,0,1-1.7,2.5,1,1,0,0,1-1.3-.1,3.47,3.47,0,0,0-2.3-1.2c-1.1,0-3,1.4-4.1,3.8v8.7c0,3,.3,3.3,4.2,3.5v1.4Z"/><path class="cls-1" d="M401.8,139.9a55,55,0,0,0-7.9,1.7v-3c-.9.5-2.3,1.2-3.2,1.7a9.17,9.17,0,0,1-4.1,1.3,10,10,0,0,1-9.5-10.1c0-6.4,6.3-11.2,13.3-11.2a12.23,12.23,0,0,1,3.5.5V114c0-2.9-.4-3-4-3.3v-1.2a52.76,52.76,0,0,0,8.1-1.6v27.8c0,2.4.4,2.7,2.3,2.8l1.6.1-.1,1.3Zm-7.9-15.4a6.76,6.76,0,0,0-5.4-2.3c-2.5,0-6.8,1.5-6.8,8.1,0,5.6,3.8,8.5,7.1,8.6a9.7,9.7,0,0,0,5.1-1.7V124.5Z"/><path class="cls-1" d="M414.5,141.1v-1.3c3.2-.3,3.6-.5,3.6-3.6v-9.5c0-2.9-.2-3-3.2-3.5v-1.1a37.13,37.13,0,0,0,7.3-1.8v15.9c0,3.1.4,3.4,3.7,3.6v1.3Zm5.3-25.4a2.72,2.72,0,0,1-2.7-2.4,2.61,2.61,0,0,1,2.8-2.5,2.46,2.46,0,1,1-.1,4.9Z"/><path class="cls-1" d="M457.9,136.9c-2.3,2.7-5.7,4.7-8.8,4.7-6.5,0-10.4-4.7-10.4-9.7,0-3.6,1.7-6.7,5.2-9a14.37,14.37,0,0,1,7.8-2.6,8.48,8.48,0,0,1,4.8,1.2c.7.5.8.8.8,1.3a2.5,2.5,0,0,1-1.8,2.1c-.3,0-.5-.1-1-.5a8,8,0,0,0-5.2-1.9c-3.4,0-6.4,2.6-6.4,7.4-.1,6.4,4.8,8.5,7.8,8.5,2.2,0,3.9-.5,6.3-2.5Z"/><path class="cls-1" d="M528.6,112.4c-3.2.2-4.4.9-4.5,3-.1,1.1-.2,3-.2,7.2v5c0,4.7-.6,8.3-3.6,11.1-2.4,2.3-5.9,2.9-9.4,2.9-3,0-6.2-.6-8.4-2.1-3.1-2.1-4.6-5.3-4.6-10.7V117.1c0-4.1-.4-4.4-4.5-4.7v-1.3h13.5v1.3c-4.1.2-4.5.6-4.5,4.7v11.5c0,6.7,3.5,10.4,9.7,10.4,7.3,0,9.6-4.1,9.6-11.7v-4.7a69.58,69.58,0,0,0-.3-7.2c-.2-2.1-1.3-2.9-5.1-3v-1.3h12.3Z"/><path class="cls-1" d="M553.6,141.1v-1.3c3-.3,3.3-.6,3.3-3.7v-7.6c0-3.2-1.3-5.4-4.7-5.4a9.42,9.42,0,0,0-5.7,2.4v10.8c0,3.2.3,3.3,3.3,3.5v1.3H538.7v-1.3c3.4-.3,3.7-.5,3.7-3.5v-9.5c0-3-.4-3.1-3.1-3.5V122a39.91,39.91,0,0,0,7.2-1.8v3.6c1-.6,2.2-1.3,3.5-2.1a8.75,8.75,0,0,1,4.3-1.4c4.1,0,6.7,2.7,6.7,7.2v8.8c0,3.1.3,3.3,3.3,3.5v1.3Z"/><path class="cls-1" d="M577.4,141.1v-1.3c3.2-.3,3.6-.5,3.6-3.6v-9.5c0-2.9-.2-3-3.2-3.5v-1.1a37.13,37.13,0,0,0,7.3-1.8v15.9c0,3.1.4,3.4,3.7,3.6v1.3Zm5.4-25.4a2.72,2.72,0,0,1-2.7-2.4,2.61,2.61,0,0,1,2.8-2.5,2.56,2.56,0,0,1,2.6,2.5A2.64,2.64,0,0,1,582.8,115.7Z"/><path class="cls-1" d="M624,122.1c-2.8.3-3.1.7-4.5,3.5-1.7,3.7-4.6,9.8-7.3,16h-1.5c-2.2-5.3-4.7-10.8-7.1-16.2-1.2-2.7-1.6-2.9-4.3-3.3v-1.2h10.5v1.2c-2.8.3-2.9.6-2.1,2.6,1.3,3.2,3.4,8.1,4.9,11.3,1.8-4.1,3.5-7.9,4.7-10.8.9-2.3.7-2.8-2.7-3.1v-1.2h9.3l.1,1.2Z"/><path class="cls-1" d="M653.9,137.2c-3.3,3.7-6.9,4.5-8.5,4.5a9.66,9.66,0,0,1-10.1-9.9,11.42,11.42,0,0,1,3.3-8.1,11,11,0,0,1,7.6-3.4c4.5,0,7.8,3.5,7.8,7.1-.1.9-.2,1.3-1,1.5-1,.2-7.6.6-13.7.8-.2,6.2,4.1,8.7,7.7,8.7a9.15,9.15,0,0,0,5.9-2.3Zm-8.8-15.1c-2.4,0-4.7,2-5.4,5.7,2.9,0,5.7,0,8.8-.1.9,0,1.2-.2,1.2-.9A4.43,4.43,0,0,0,645.1,122.1Z"/><path class="cls-1" d="M679.3,141.1H667.5v-1.3c3.2-.3,3.5-.5,3.5-3.5v-9.6c0-3-.2-3.2-3.2-3.5V122a30.63,30.63,0,0,0,7.2-1.9v5.1c1.8-2.4,3.9-4.9,6.5-4.9,1.9,0,3,1.1,3,2.2a2.89,2.89,0,0,1-1.7,2.5,1,1,0,0,1-1.3-.1,3.47,3.47,0,0,0-2.3-1.2c-1.1,0-3,1.4-4.1,3.8v8.7c0,3,.3,3.3,4.2,3.5v1.4Z"/><path class="cls-1" d="M709.9,126.3c-.9-2.7-2.3-4.5-5.4-4.5a3,3,0,0,0-3.2,3c0,2,1.5,2.9,4.4,4.1,4.4,1.9,6.6,3.3,6.6,6.3,0,4.2-4.3,6.4-8.4,6.4a13.85,13.85,0,0,1-6.1-1.3c-.3-1.3-.7-3.9-.9-5.4l1.5-.2c.9,2.9,2.7,5.3,6.3,5.3,1.9,0,3.6-1.2,3.6-3.1,0-2.1-1.4-3.1-4.1-4.3-3.6-1.6-6.5-3-6.5-6.4s3.2-5.9,8-5.9a32.13,32.13,0,0,1,4.9.6c.2,1.1.5,4,.8,5.1Z"/><path class="cls-1" d="M725.9,141.1v-1.3c3.2-.3,3.6-.5,3.6-3.6v-9.5c0-2.9-.2-3-3.2-3.5v-1.1a37.13,37.13,0,0,0,7.3-1.8v15.9c0,3.1.4,3.4,3.7,3.6v1.3Zm5.3-25.4a2.72,2.72,0,0,1-2.7-2.4,2.61,2.61,0,0,1,2.8-2.5,2.46,2.46,0,1,1-.1,4.9Z"/><path class="cls-1" d="M759.8,141a6.07,6.07,0,0,1-2.2.6c-3.3,0-5-1.8-5-5.5V122.7h-3.5l-.2-.6,1.4-1.3h2.4V117c1-.9,2.5-2.1,3.4-3l.8.1c-.1,1.9-.2,4.6-.2,6.8h5.8a1.33,1.33,0,0,1-.3,1.9h-5.5v11.8c0,3.7,1.6,4.4,3,4.4a8.35,8.35,0,0,0,3.1-.7l.5,1.2Z"/><path class="cls-1" d="M799.2,122.1c-2.7.4-3.2.7-4.5,3.4s-2.7,5.7-6.2,13.7a126.44,126.44,0,0,0-5.1,12.6,1.43,1.43,0,0,1-1.5,1.2c-1.6,0-3.1-1.1-3.1-2.2,0-.6.4-1,1.1-1.6a12.05,12.05,0,0,0,3.4-3.4c1.1-1.9,1.8-3.5,2.1-4.1a2.53,2.53,0,0,0-.1-1.9c-2-5.3-4.8-10.9-6.3-14.2-1.1-2.5-1.6-3.1-4.4-3.4V121H785v1.2c-2.4.3-2.6.8-1.9,2.5l5,11.3c1.4-3.2,3.5-8.3,4.6-11.2.6-1.8.3-2.3-2.7-2.6V121h9.4v1.1Z"/></svg>